<?xml version="1.0" encoding="UTF-8"?>
<svg id="Layer_1" xmlns="http://www.w3.org/2000/svg" version="1.1" viewBox="0 0 53 53">
  <!-- Generator: Adobe Illustrator 29.5.0, SVG Export Plug-In . SVG Version: 2.1.0 Build 137)  -->
  <defs>
    <style>
      .st0, .st1 {
        fill: #fff;
      }

      .st2 {
        fill: none;
        stroke: #fff;
        stroke-linecap: round;
        stroke-linejoin: round;
        stroke-width: 3px;
      }

      .st1 {
        fill-opacity: 0;
      }
    </style>
  </defs>
  <g>
    <g id="Layer1_0_FILL">
      <path class="st1" d="M33.5,1.5h-14c-5,0-9.2,1.8-12.7,5.2-3.5,3.5-5.2,7.8-5.2,12.8v14c0,5,1.7,9.2,5.2,12.7,3.5,3.5,7.8,5.3,12.7,5.3h14c5,0,9.2-1.8,12.7-5.3,3.5-3.5,5.3-7.7,5.3-12.7v-14c0-5-1.8-9.2-5.3-12.8-3.5-3.5-7.7-5.2-12.7-5.2Z"/>
    </g>
    <path id="Layer1_0_1_STROKES" class="st2" d="M19.5,1.5h14c5,0,9.2,1.8,12.7,5.2,3.5,3.5,5.3,7.8,5.3,12.8v14c0,5-1.8,9.2-5.3,12.7-3.5,3.5-7.7,5.3-12.7,5.3h-14c-5,0-9.2-1.8-12.7-5.3-3.5-3.5-5.2-7.7-5.2-12.7v-14c0-5,1.7-9.2,5.2-12.8,3.5-3.5,7.8-5.2,12.7-5.2Z"/>
  </g>
  <path class="st0" d="M22.7,33.5c0-1.3.2-2.4.7-3.4s.9-1.9,1.6-2.7c.7-.8,1.4-1.5,2.1-2.2.7-.7,1.4-1.3,2.1-2,.7-.6,1.2-1.3,1.6-2s.7-1.4.7-2.3-.6-2.3-1.6-3.1-2.6-1.3-4.3-1.3-3.4.3-4.8,1-2.4,1.7-3.4,3l-6.8-4c1.5-2.3,3.6-4.2,6.3-5.5,2.7-1.4,5.8-2,9.5-2s5.4.3,7.5,1.2c2.1.8,3.7,2,5,3.5,1.2,1.5,1.7,3.4,1.7,5.6s-.2,2.8-.7,4c-.5,1-1,2.1-1.7,2.9s-1.5,1.6-2.2,2.3c-.8.7-1.5,1.4-2.2,2.1-.7.7-1.3,1.4-1.7,2.1-.5.7-.7,1.6-.7,2.6h-8.7ZM26.9,47.5c-1.5,0-2.8-.5-3.8-1.5-1-1-1.5-2.2-1.5-3.6s.5-2.6,1.5-3.5,2.3-1.4,3.8-1.4,2.9.5,3.8,1.4,1.5,2.1,1.5,3.5-.5,2.6-1.5,3.6c-.9,1-2.3,1.5-3.8,1.5Z"/>
</svg>