<?xml version="1.0" encoding="UTF-8"?>
<svg id="Layer_1" xmlns="http://www.w3.org/2000/svg" version="1.1" viewBox="0 0 53 53">
  <!-- Generator: Adobe Illustrator 29.5.0, SVG Export Plug-In . SVG Version: 2.1.0 Build 137)  -->
  <defs>
    <style>
      .st0 {
        fill: #fff;
      }

      .st1 {
        fill: none;
        stroke: #fff;
        stroke-linecap: round;
        stroke-linejoin: round;
        stroke-width: 3px;
      }

      .st2 {
        fill-opacity: 0;
      }
    </style>
  </defs>
  <g>
    <g id="Layer1_0_FILL">
      <path class="st2" d="M33.5,1.5h-14c-5,0-9.2,1.8-12.7,5.2-3.5,3.5-5.2,7.8-5.2,12.8v14c0,5,1.7,9.2,5.2,12.7,3.5,3.5,7.8,5.3,12.7,5.3h14c5,0,9.2-1.8,12.7-5.3,3.5-3.5,5.3-7.7,5.3-12.7v-14c0-5-1.8-9.2-5.3-12.8-3.5-3.5-7.7-5.2-12.7-5.2Z"/>
    </g>
    <path id="Layer1_0_1_STROKES" class="st1" d="M19.5,1.5h14c5,0,9.2,1.8,12.7,5.2,3.5,3.5,5.3,7.8,5.3,12.8v14c0,5-1.8,9.2-5.3,12.7-3.5,3.5-7.7,5.3-12.7,5.3h-14c-5,0-9.2-1.8-12.7-5.3-3.5-3.5-5.2-7.7-5.2-12.7v-14c0-5,1.7-9.2,5.2-12.8,3.5-3.5,7.8-5.2,12.7-5.2Z"/>
  </g>
  <path class="st0" d="M23.1,32.6c0-1.1.2-2.1.6-2.9.4-.8.8-1.6,1.4-2.3.6-.7,1.2-1.3,1.8-1.9.6-.6,1.2-1.1,1.8-1.7.6-.5,1-1.1,1.4-1.7s.6-1.2.6-2c0-1.1-.5-2-1.4-2.7-.9-.7-2.2-1.1-3.7-1.1s-2.9.3-4.1.9c-1.2.6-2.1,1.5-2.9,2.6l-5.8-3.4c1.3-2,3.1-3.6,5.4-4.7,2.3-1.2,5-1.7,8.2-1.7s4.6.3,6.4,1c1.8.7,3.2,1.7,4.3,3,1,1.3,1.5,2.9,1.5,4.8s-.2,2.4-.6,3.4c-.4.9-.9,1.8-1.5,2.5-.6.7-1.3,1.4-1.9,2-.7.6-1.3,1.2-1.9,1.8-.6.6-1.1,1.2-1.5,1.8-.4.6-.6,1.4-.6,2.2h-7.3ZM26.7,44.7c-1.3,0-2.4-.4-3.3-1.3-.9-.9-1.3-1.9-1.3-3.1s.4-2.2,1.3-3c.9-.8,2-1.2,3.3-1.2s2.5.4,3.3,1.2c.8.8,1.3,1.8,1.3,3s-.4,2.2-1.3,3.1c-.8.9-2,1.3-3.3,1.3Z"/>
</svg>